<svg xmlns="http://www.w3.org/2000/svg" viewBox="0 0 64 64">
  <defs>
    <linearGradient id="paper" x1="0" y1="0" x2="0" y2="1">
      <stop offset="0" stop-color="#fff3b0"/>
      <stop offset="1" stop-color="#ffe58a"/>
    </linearGradient>
  </defs>
  <!-- Rounded notepad -->
  <rect x="8" y="6" width="48" height="52" rx="8" fill="url(#paper)" stroke="#243042" stroke-width="2"/>
  <!-- Margin line + rules -->
  <path d="M20 10v44" stroke="#ff6b6b" stroke-width="1.5"/>
  <g stroke="#7aa0d8" stroke-width="1">
    <path d="M12 18h40M12 24h40M12 30h40M12 36h40M12 42h40M12 48h40" />
  </g>
  <!-- Quill -->
  <path d="M34 22c6 0 11 5 11 11 0 7-6 13-13 13-4 0-6-2-6-6 0-10 8-18 8-18z" fill="#2f5dff" opacity=".1"/>
  <path d="M27 46l14-14" stroke="#2f5dff" stroke-width="3" stroke-linecap="round"/>
  <path d="M41 32c-4-8-11-11-16-10 4 3 7 10 6 16" stroke="#2f5dff" stroke-width="2" fill="none" stroke-linecap="round"/>
  <!-- Pen nib -->
  <path d="M26 47l3 3 5-2-2-2z" fill="#243042"/>
</svg>